<mxfile host="app.diagrams.net" modified="2024-02-15T23:09:01.976Z" agent="Mozilla/5.0 (Macintosh; Intel Mac OS X 10.15; rv:121.0) Gecko/20100101 Firefox/121.0" etag="22Jo02mCDat9inuCLiqg" version="23.0.2" type="github">
  <diagram name="Page-1" id="-Qy-fS5ySWGEHe0AjTvr">
    <mxGraphModel dx="2005" dy="1135" grid="0" gridSize="10" guides="1" tooltips="1" connect="1" arrows="1" fold="1" page="0" pageScale="1" pageWidth="850" pageHeight="1100" math="0" shadow="0">
      <root>
        <mxCell id="0" />
        <mxCell id="1" parent="0" />
        <mxCell id="kEYLE96o18MWIgXPF9uF-19" value="" style="rounded=1;whiteSpace=wrap;html=1;fontSize=16;movable=0;resizable=0;rotatable=0;deletable=0;editable=0;locked=1;connectable=0;" parent="1" vertex="1">
          <mxGeometry x="151.5" y="451" width="355.5" height="370" as="geometry" />
        </mxCell>
      </root>
    </mxGraphModel>
  </diagram>
</mxfile>
